<svg width="33" height="33" viewBox="0 0 33 33" fill="none" xmlns="http://www.w3.org/2000/svg">
<g clip-path="url(#clip0_6_24)">
<rect width="33" height="33" fill="white"/>
<path d="M12.1038 32.754C11.9825 32.9693 11.8064 33.1486 11.5934 33.2737C11.3803 33.3988 11.1379 33.4652 10.8909 33.4663C10.6509 33.4672 10.4149 33.4044 10.207 33.2846C7.15256 31.7259 4.58524 29.3579 2.7852 26.4391C0.985154 23.5203 0.0216532 20.1631 0 16.7339C0.00331606 12.2968 1.76726 8.04233 4.90461 4.90483C8.04196 1.76734 12.2963 0.00331621 16.7331 0C17.7525 0.00152522 18.7697 0.0947291 19.7724 0.278551C20.1345 0.345526 20.4552 0.553244 20.6644 0.856288C20.8736 1.15933 20.9539 1.53311 20.8881 1.89541C20.8575 2.0761 20.7912 2.24868 20.6927 2.40322C20.5942 2.55776 20.4657 2.69103 20.3148 2.79507C20.1639 2.8991 19.9937 2.97172 19.8143 3.00885C19.6348 3.04598 19.4497 3.04677 19.27 3.01114C18.4319 2.86752 17.5834 2.79324 16.7331 2.78895C13.0372 2.79516 9.49436 4.26618 6.88094 6.87972C4.26752 9.49326 2.79656 13.0363 2.79035 16.7324C2.82056 19.6655 3.65584 22.5339 5.20493 25.0247C6.75402 27.5156 8.95746 29.5331 11.5748 30.8571C11.7348 30.9462 11.8754 31.0662 11.9888 31.21C12.1022 31.3538 12.1861 31.5187 12.2355 31.6951C12.2848 31.8714 12.2987 32.0559 12.2763 32.2376C12.254 32.4194 12.1944 32.5949 12.1038 32.754ZM33.186 13.693C33.1104 13.3393 32.9 13.029 32.5993 12.8281C32.2987 12.6271 31.9314 12.5512 31.5757 12.6166C31.2201 12.682 30.9038 12.8835 30.6943 13.1783C30.4847 13.473 30.3985 13.8378 30.4536 14.1952C30.5978 15.0338 30.6725 15.883 30.6773 16.7339C30.6472 18.9329 29.7527 21.0316 28.187 22.576C26.6214 24.1205 24.5107 24.9863 22.3116 24.9863C20.1124 24.9863 18.0017 24.1205 16.4361 22.576C14.8705 21.0316 13.9759 18.9329 13.9458 16.7339C13.9458 16.3641 13.7989 16.0094 13.5374 15.7479C13.2759 15.4864 12.9213 15.3394 12.5514 15.3394C12.1816 15.3394 11.8268 15.4864 11.5653 15.7479C11.3038 16.0094 11.157 16.3641 11.157 16.7339C11.157 19.6924 12.3321 22.5298 14.424 24.6218C16.5159 26.7138 19.3532 27.889 22.3116 27.889C25.27 27.889 28.1072 26.7138 30.1991 24.6218C32.291 22.5298 33.4663 19.6924 33.4663 16.7339C33.4648 15.7145 33.3714 14.6972 33.1876 13.6945L33.186 13.693Z" fill="url(#paint0_linear_6_24)"/>
</g>
<defs>
<linearGradient id="paint0_linear_6_24" x1="5.32114" y1="2.47651" x2="33.4663" y2="28.4129" gradientUnits="userSpaceOnUse">
<stop stop-color="#E6395E"/>
<stop offset="1" stop-color="#7067D0"/>
</linearGradient>
<clipPath id="clip0_6_24">
<rect width="33" height="33" fill="white"/>
</clipPath>
</defs>
</svg>
