<svg width="161" height="33" viewBox="0 0 161 33" fill="none" xmlns="http://www.w3.org/2000/svg">
<g clip-path="url(#clip0_8_7)">
<path d="M12.1038 32.754C11.9825 32.9693 11.8064 33.1486 11.5934 33.2737C11.3803 33.3988 11.1379 33.4652 10.8909 33.4663C10.6509 33.4672 10.4149 33.4044 10.207 33.2846C7.15256 31.7259 4.58524 29.3579 2.7852 26.4391C0.985154 23.5203 0.0216532 20.1631 0 16.7339C0.00331606 12.2968 1.76726 8.04233 4.90461 4.90483C8.04196 1.76734 12.2963 0.00331621 16.7331 0C17.7525 0.00152522 18.7697 0.0947291 19.7724 0.278551C20.1345 0.345526 20.4552 0.553244 20.6644 0.856288C20.8736 1.15933 20.9539 1.53311 20.8881 1.89541C20.8575 2.0761 20.7912 2.24868 20.6927 2.40322C20.5942 2.55776 20.4657 2.69103 20.3148 2.79507C20.1639 2.8991 19.9937 2.97172 19.8143 3.00885C19.6348 3.04598 19.4497 3.04677 19.27 3.01114C18.4319 2.86752 17.5834 2.79324 16.7331 2.78895C13.0372 2.79516 9.49436 4.26618 6.88094 6.87972C4.26752 9.49326 2.79656 13.0363 2.79035 16.7324C2.82056 19.6655 3.65584 22.5339 5.20493 25.0247C6.75402 27.5156 8.95746 29.5331 11.5748 30.8571C11.7348 30.9462 11.8754 31.0662 11.9888 31.21C12.1022 31.3538 12.1861 31.5187 12.2355 31.6951C12.2848 31.8714 12.2987 32.0559 12.2763 32.2376C12.254 32.4194 12.1944 32.5949 12.1038 32.754ZM33.186 13.693C33.1104 13.3393 32.9 13.029 32.5993 12.8281C32.2987 12.6271 31.9314 12.5512 31.5757 12.6166C31.2201 12.682 30.9038 12.8835 30.6943 13.1783C30.4847 13.473 30.3985 13.8378 30.4536 14.1952C30.5978 15.0338 30.6725 15.883 30.6773 16.7339C30.6472 18.9329 29.7527 21.0316 28.187 22.576C26.6214 24.1205 24.5107 24.9863 22.3116 24.9863C20.1124 24.9863 18.0017 24.1205 16.4361 22.576C14.8705 21.0316 13.9759 18.9329 13.9458 16.7339C13.9458 16.3641 13.7989 16.0094 13.5374 15.7479C13.2759 15.4864 12.9213 15.3394 12.5514 15.3394C12.1816 15.3394 11.8268 15.4864 11.5653 15.7479C11.3038 16.0094 11.157 16.3641 11.157 16.7339C11.157 19.6924 12.3321 22.5298 14.424 24.6218C16.5159 26.7138 19.3532 27.889 22.3116 27.889C25.27 27.889 28.1072 26.7138 30.1991 24.6218C32.291 22.5298 33.4663 19.6924 33.4663 16.7339C33.4648 15.7145 33.3714 14.6972 33.1876 13.6945L33.186 13.693Z" fill="url(#paint0_linear_8_7)"/>
<path d="M48.8748 13.1448C48.798 12.3922 48.4566 11.7936 47.8507 11.3491C47.2448 10.9045 46.483 10.6822 45.5651 10.6822C44.9185 10.6822 44.3488 10.7901 43.856 11.0057C43.3677 11.2214 42.9834 11.5207 42.703 11.9036C42.4272 12.2822 42.2893 12.7135 42.2893 13.1977C42.2893 13.5542 42.3684 13.8667 42.5267 14.1352C42.6849 14.4036 42.8974 14.6347 43.1642 14.8284C43.4355 15.0176 43.7339 15.1805 44.0595 15.3169C44.3895 15.4534 44.7219 15.5678 45.0564 15.6603L46.5214 16.0696C46.9645 16.1884 47.4076 16.3403 47.8507 16.5251C48.2938 16.71 48.6985 16.9433 49.0647 17.225C49.4355 17.5023 49.7317 17.8434 49.9532 18.2483C50.1793 18.6488 50.2923 19.1308 50.2923 19.6942C50.2923 20.416 50.1002 21.0652 49.7158 21.6418C49.3315 22.2184 48.7799 22.6761 48.061 23.0151C47.3421 23.3496 46.4807 23.5168 45.4769 23.5168C44.532 23.5168 43.7113 23.365 43.015 23.0613C42.3187 22.7532 41.7716 22.3284 41.3737 21.7871C40.9758 21.2457 40.752 20.6185 40.7023 19.9054H42.0045C42.0497 20.438 42.2305 20.8892 42.547 21.2589C42.8635 21.6286 43.275 21.9103 43.7814 22.104C44.2878 22.2932 44.853 22.3878 45.4769 22.3878C46.1687 22.3878 46.7837 22.2756 47.3217 22.0511C47.8643 21.8223 48.2893 21.5054 48.5968 21.1004C48.9087 20.6911 49.0647 20.2157 49.0647 19.6744C49.0647 19.2166 48.9427 18.8337 48.6985 18.5256C48.4543 18.2131 48.113 17.9512 47.6744 17.7399C47.2403 17.5287 46.7362 17.3416 46.162 17.1788L44.5003 16.7034C43.4106 16.3865 42.5651 15.9486 41.9638 15.3896C41.3624 14.8306 41.0617 14.1176 41.0617 13.2505C41.0617 12.5242 41.2607 11.886 41.6586 11.3359C42.061 10.7813 42.6036 10.3499 43.2863 10.0418C43.9736 9.72933 44.7445 9.57308 45.599 9.57308C46.4626 9.57308 47.2268 9.72713 47.8914 10.0352C48.5561 10.3433 49.0828 10.7681 49.4717 11.3094C49.865 11.8464 50.0753 12.4582 50.1024 13.1448H48.8748Z" fill="white"/>
<path d="M53.3647 23.2857H52.0353L57.0881 9.76454H58.4445L63.4973 23.2857H62.168L57.8138 11.3689H57.7188L53.3647 23.2857ZM54.3209 18.1031H61.2117V19.2122H54.3209V18.1031Z" fill="white"/>
<path d="M65.8778 23.2857V9.76454H67.1461V17.0467H67.2682L74.0504 9.76454H75.7188L69.7844 16.0168L75.6917 23.2857H74.1454L68.9977 16.8751L67.1461 18.8953V23.2857H65.8778Z" fill="white"/>
<path d="M79.3812 9.76454V23.2857H78.1129V9.76454H79.3812ZM78.7437 8.02157C78.4995 8.02157 78.287 7.94015 78.1062 7.77729C77.9298 7.61004 77.8417 7.40977 77.8417 7.1765C77.8417 6.94322 77.9298 6.74516 78.1062 6.5823C78.287 6.41505 78.4995 6.33142 78.7437 6.33142C78.9924 6.33142 79.2049 6.41505 79.3812 6.5823C79.5621 6.74516 79.6525 6.94322 79.6525 7.1765C79.6525 7.40977 79.5621 7.61004 79.3812 7.77729C79.2049 7.94015 78.9924 8.02157 78.7437 8.02157Z" fill="white"/>
<path d="M93.8918 9.76454V23.2857H92.6574L84.4509 11.9631H84.3424V23.2857H83.0741V9.76454H84.3017L92.5353 21.1004H92.6438V9.76454H93.8918Z" fill="white"/>
<path d="M97.9916 23.2857V9.76454H100.928V15.3434H106.89V9.76454H109.82V23.2857H106.89V17.7003H100.928V23.2857H97.9916Z" fill="white"/>
<path d="M114.635 23.2857H111.488L116.283 9.76454H120.068L124.856 23.2857H121.709L118.23 12.8543H118.121L114.635 23.2857ZM114.438 17.971H121.872V20.2025H114.438V17.971Z" fill="white"/>
<path d="M124.296 9.76454H127.586L130.753 15.5876H130.889L134.056 9.76454H137.345L132.279 18.5058V23.2857H129.363V18.5058L124.296 9.76454Z" fill="white"/>
<path d="M139.926 23.2857H136.779L141.574 9.76454H145.359L150.147 23.2857H147L143.521 12.8543H143.412L139.926 23.2857ZM139.729 17.971H147.163V20.2025H139.729V17.971Z" fill="white"/>
<path d="M149.592 12.1215V9.76454H161V12.1215H156.748V23.2857H153.845V12.1215H149.592Z" fill="white"/>
</g>
<defs>
<linearGradient id="paint0_linear_8_7" x1="5.32114" y1="2.47651" x2="33.4663" y2="28.4129" gradientUnits="userSpaceOnUse">
<stop stop-color="#E6395E"/>
<stop offset="1" stop-color="#7067D0"/>
</linearGradient>
<clipPath id="clip0_8_7">
<rect width="161" height="33" fill="white"/>
</clipPath>
</defs>
</svg>
